<?xml version="1.0" encoding="UTF-8"?>
<svg id="uuid-19851656-d0a3-4469-a3d4-1a86455b9b9b" data-name="Layer 2" xmlns="http://www.w3.org/2000/svg" viewBox="0 0 1136.49 263.97">
  <g id="uuid-dd004c23-facf-4b1e-865b-c59e3504a154" data-name="uuid-d2a8e799-7f2a-4fb1-9265-18546612f2c3">
    <g id="uuid-c593403e-71c1-49d1-899d-17411215f901" data-name="uuid-87e66026-ae52-413e-92ce-b1effb46d8ab">
      <g>
        <path d="M2.79,161.42c-.78,0-1.44-.27-1.98-.81-.54-.54-.81-1.2-.81-1.98v-75.73c0-.85.27-1.55.81-2.09.54-.54,1.2-.81,1.98-.81h30.13c9.38,0,16.79,2.17,22.22,6.51s8.14,10.66,8.14,18.96c0,5.74-1.42,10.51-4.25,14.31s-6.61,6.55-11.34,8.26l16.98,29.66c.23.47.35.89.35,1.28,0,.7-.25,1.28-.76,1.74-.5.47-1.07.7-1.69.7h-10.58c-1.32,0-2.33-.35-3.02-1.05-.7-.7-1.24-1.4-1.63-2.09l-15-27.57h-16.17v27.92c0,.78-.25,1.44-.76,1.98-.5.54-1.18.81-2.04.81,0,0-10.58,0-10.58,0ZM16.17,117.57h16.4c4.73,0,8.26-1.07,10.58-3.2,2.33-2.13,3.49-5.14,3.49-9.01s-1.14-6.92-3.43-9.13-5.84-3.32-10.64-3.32h-16.4s0,24.66,0,24.66Z" fill="#fdfaf1" stroke-width="0"/>
        <path d="M99.57,162.58c-8.61,0-15.43-2.48-20.47-7.44s-7.76-12.02-8.14-21.17c-.08-.77-.12-1.76-.12-2.97s.04-2.15.12-2.85c.31-5.89,1.65-10.95,4.01-15.18,2.37-4.23,5.64-7.48,9.83-9.77s9.11-3.43,14.77-3.43c6.28,0,11.55,1.3,15.82,3.9,4.26,2.6,7.48,6.21,9.65,10.82,2.17,4.62,3.26,9.95,3.26,15.99v2.44c0,.78-.27,1.44-.81,1.98s-1.24.81-2.09.81h-38.62v.93c.08,2.72.6,5.22,1.57,7.5.97,2.29,2.4,4.13,4.3,5.53s4.17,2.09,6.8,2.09c2.17,0,3.99-.33,5.47-.99,1.47-.66,2.67-1.41,3.61-2.27.93-.85,1.59-1.55,1.98-2.09.7-.93,1.26-1.49,1.69-1.69.43-.19,1.07-.29,1.92-.29h10c.77,0,1.41.23,1.92.7.5.47.72,1.05.64,1.75-.08,1.24-.72,2.75-1.92,4.54s-2.93,3.53-5.18,5.23c-2.25,1.71-5.06,3.12-8.43,4.25s-7.23,1.69-11.57,1.69h-.01ZM86.77,125.94h25.71v-.35c0-3.02-.51-5.68-1.51-7.97-1.01-2.29-2.48-4.07-4.42-5.35-1.94-1.28-4.27-1.92-6.98-1.92s-5.04.64-6.98,1.92-3.39,3.06-4.36,5.35c-.97,2.29-1.45,4.94-1.45,7.97v.35h0Z" fill="#fdfaf1" stroke-width="0"/>
        <path d="M154.35,161.42c-1.09,0-1.9-.27-2.44-.81-.54-.54-1.01-1.24-1.4-2.09l-16.63-53.97c-.08-.39-.12-.74-.12-1.05,0-.7.25-1.3.76-1.8s1.06-.76,1.69-.76h8.61c.93,0,1.67.25,2.21.76.54.51.85.99.93,1.45l11.4,38.5,12.1-38.15c.15-.54.5-1.1,1.05-1.69.54-.58,1.36-.87,2.44-.87h5.82c1.08,0,1.9.29,2.44.87.54.58.89,1.15,1.05,1.69l12.1,38.15,11.4-38.5c.08-.46.37-.95.87-1.45s1.22-.76,2.15-.76h8.61c.7,0,1.3.25,1.8.76s.76,1.11.76,1.8c0,.31-.08.66-.23,1.05l-16.63,53.97c-.23.85-.64,1.55-1.22,2.09-.58.54-1.42.81-2.5.81h-7.56c-1.01,0-1.84-.27-2.5-.81s-1.1-1.24-1.34-2.09l-12.1-36.76-12.1,36.76c-.31.85-.76,1.55-1.34,2.09-.58.54-1.45.81-2.62.81h-7.46Z" fill="#fdfaf1" stroke-width="0"/>
        <path d="M237.87,90.93c-.78,0-1.44-.27-1.98-.81s-.81-1.2-.81-1.98v-8.38c0-.77.27-1.43.81-1.98.54-.54,1.2-.81,1.98-.81h10.58c.85,0,1.55.27,2.09.81.54.54.81,1.2.81,1.98v8.38c0,.78-.27,1.44-.81,1.98-.54.54-1.24.81-2.09.81h-10.58ZM238.34,161.42c-.78,0-1.44-.27-1.98-.81s-.81-1.2-.81-1.98v-54.91c0-.77.27-1.43.81-1.98s1.2-.81,1.98-.81h9.65c.85,0,1.53.27,2.04.81.5.54.76,1.2.76,1.98v54.9c0,.78-.25,1.44-.76,1.98s-1.18.81-2.04.81h-9.65Z" fill="#fdfaf1" stroke-width="0"/>
        <path d="M269.04,161.42c-.78,0-1.44-.27-1.98-.81s-.81-1.2-.81-1.98v-54.79c0-.85.27-1.55.81-2.09s1.2-.81,1.98-.81h9.42c.77,0,1.45.27,2.04.81.58.54.87,1.24.87,2.09v4.77c1.78-2.48,4.09-4.38,6.92-5.7,2.83-1.32,6.11-1.98,9.83-1.98h4.77c.85,0,1.53.27,2.04.81.5.54.76,1.2.76,1.98v8.38c0,.78-.25,1.44-.76,1.98-.5.54-1.18.81-2.04.81h-9.07c-3.72,0-6.61,1.03-8.67,3.08s-3.08,4.94-3.08,8.67v31.99c0,.78-.27,1.44-.81,1.98s-1.24.81-2.09.81h-10.13Z" fill="#fdfaf1" stroke-width="0"/>
        <path d="M319.41,90.93c-.78,0-1.44-.27-1.98-.81s-.81-1.2-.81-1.98v-8.38c0-.77.27-1.43.81-1.98.54-.54,1.2-.81,1.98-.81h10.58c.85,0,1.55.27,2.09.81.54.54.81,1.2.81,1.98v8.38c0,.78-.27,1.44-.81,1.98-.54.54-1.24.81-2.09.81h-10.58ZM319.88,161.42c-.78,0-1.44-.27-1.98-.81s-.81-1.2-.81-1.98v-54.91c0-.77.27-1.43.81-1.98s1.2-.81,1.98-.81h9.65c.85,0,1.53.27,2.04.81.5.54.76,1.2.76,1.98v54.9c0,.78-.25,1.44-.76,1.98s-1.18.81-2.04.81h-9.65Z" fill="#fdfaf1" stroke-width="0"/>
        <path d="M350.58,161.42c-.78,0-1.44-.27-1.98-.81s-.81-1.2-.81-1.98v-54.91c0-.77.27-1.43.81-1.98s1.2-.81,1.98-.81h9.54c.77,0,1.43.27,1.98.81.54.54.81,1.2.81,1.98v4.77c2.02-2.48,4.59-4.55,7.74-6.22,3.14-1.67,7.04-2.5,11.69-2.5s8.84,1.07,12.33,3.2c3.49,2.13,6.18,5.14,8.08,9.02,1.9,3.88,2.85,8.53,2.85,13.96v32.69c0,.78-.27,1.44-.81,1.98s-1.2.81-1.98.81h-10.24c-.78,0-1.44-.27-1.98-.81s-.81-1.2-.81-1.98v-31.99c0-4.5-1.11-8.03-3.32-10.59-2.21-2.56-5.41-3.84-9.6-3.84s-7.25,1.28-9.65,3.84-3.61,6.09-3.61,10.59v31.99c0,.78-.27,1.44-.81,1.98s-1.2.81-1.98.81h-10.24.01Z" fill="#fdfaf1" stroke-width="0"/>
        <path d="M445.38,187.01c-5.66,0-10.31-.74-13.96-2.21s-6.51-3.26-8.61-5.35-3.59-4.17-4.48-6.22c-.89-2.06-1.38-3.66-1.45-4.83-.08-.78.17-1.45.76-2.04.58-.58,1.26-.87,2.04-.87h10.12c.77,0,1.4.17,1.86.52.47.35.85.99,1.16,1.92.46,1.01,1.08,2.09,1.86,3.26.77,1.16,1.96,2.15,3.55,2.97,1.59.81,3.78,1.22,6.57,1.22,2.95,0,5.43-.43,7.44-1.28,2.02-.85,3.55-2.29,4.59-4.3,1.05-2.02,1.57-4.81,1.57-8.38v-7.91c-1.86,2.25-4.25,4.07-7.15,5.47-2.91,1.4-6.5,2.09-10.76,2.09s-7.7-.68-10.76-2.04-5.6-3.26-7.62-5.7c-2.02-2.44-3.55-5.33-4.59-8.67-1.05-3.33-1.65-7.02-1.8-11.05-.08-2.09-.08-4.19,0-6.28.15-3.88.76-7.48,1.8-10.82,1.05-3.33,2.58-6.26,4.59-8.78,2.02-2.52,4.55-4.48,7.62-5.87,3.06-1.4,6.65-2.09,10.76-2.09,4.42,0,8.14.83,11.17,2.5,3.02,1.67,5.5,3.74,7.44,6.22v-4.65c0-.85.27-1.55.81-2.09s1.2-.81,1.98-.81h9.42c.77,0,1.43.27,1.98.81.54.54.81,1.24.81,2.09l.12,56.07c0,5.58-1.05,10.39-3.14,14.42-2.09,4.03-5.25,7.15-9.48,9.36s-9.64,3.32-16.23,3.32h.01ZM444.8,148.74c3.18,0,5.74-.7,7.68-2.09,1.94-1.4,3.37-3.22,4.3-5.47s1.47-4.54,1.63-6.86c.08-1.01.12-2.29.12-3.84s-.04-2.79-.12-3.72c-.16-2.4-.7-4.71-1.63-6.92-.93-2.21-2.37-4.03-4.3-5.47-1.94-1.43-4.5-2.15-7.68-2.15s-5.74.72-7.68,2.15c-1.94,1.44-3.32,3.32-4.13,5.64s-1.3,4.89-1.45,7.68c-.16,1.86-.16,3.76,0,5.7.16,2.72.64,5.25,1.45,7.62.81,2.37,2.19,4.25,4.13,5.64,1.94,1.4,4.5,2.09,7.68,2.09Z" fill="#fdfaf1" stroke-width="0"/>
      </g>
      <g>
        <path d="M506.86,161.42c-.62,0-1.16-.23-1.63-.7s-.7-1.01-.7-1.63c0-.39.08-.81.23-1.28l29.43-75.49c.31-.77.72-1.36,1.22-1.75s1.22-.58,2.15-.58h3.96c.93,0,1.65.19,2.15.58s.91.97,1.22,1.75l29.43,75.49c.15.46.23.89.23,1.28,0,.62-.23,1.16-.7,1.63-.46.47-1.01.7-1.63.7h-2.33c-.78,0-1.36-.21-1.74-.64-.39-.43-.66-.79-.81-1.11l-7.21-18.61h-41.18l-7.21,18.61c-.08.31-.33.68-.76,1.11s-1.03.64-1.8.64h-2.33.01ZM521.75,134.08h35.59l-17.8-45.83-17.8,45.83h0Z" fill="#fdfaf1" stroke-width="0"/>
        <path d="M606.78,162.58c-5.58,0-10.26-1.16-14.02-3.49-3.76-2.33-6.63-5.51-8.61-9.54s-3.04-8.53-3.2-13.49c-.08-1.16-.12-2.79-.12-4.89s.04-3.72.12-4.89c.16-5.04,1.22-9.56,3.2-13.55,1.98-3.99,4.85-7.15,8.61-9.48s8.43-3.49,14.02-3.49,10.25,1.16,14.02,3.49c3.76,2.33,6.63,5.49,8.61,9.48,1.98,4,3.04,8.51,3.2,13.55.08,1.16.12,2.79.12,4.89s-.04,3.72-.12,4.89c-.16,4.96-1.22,9.46-3.2,13.49-1.98,4.03-4.85,7.21-8.61,9.54s-8.43,3.49-14.02,3.49ZM606.78,155.84c5.43,0,9.85-1.75,13.26-5.23,3.41-3.49,5.23-8.53,5.47-15.12.08-1.16.12-2.6.12-4.3s-.04-3.14-.12-4.3c-.23-6.67-2.06-11.73-5.47-15.18s-7.83-5.18-13.26-5.18-9.85,1.73-13.26,5.18c-3.41,3.45-5.23,8.51-5.47,15.18-.08,1.16-.12,2.6-.12,4.3s.04,3.14.12,4.3c.23,6.59,2.05,11.63,5.47,15.12,3.41,3.49,7.83,5.23,13.26,5.23Z" fill="#fdfaf1" stroke-width="0"/>
        <path d="M665.99,161.42c-4.03,0-7.21-.85-9.54-2.56-2.33-1.71-3.95-4.03-4.88-6.98-.93-2.95-1.4-6.24-1.4-9.89v-34.31h-9.07c-.78,0-1.4-.23-1.86-.7s-.7-1.08-.7-1.86v-1.63c0-.77.23-1.4.7-1.86.46-.47,1.08-.7,1.86-.7h9.07v-19.54c0-.77.23-1.4.7-1.86.47-.46,1.08-.7,1.86-.7h1.98c.77,0,1.4.23,1.86.7.46.47.7,1.09.7,1.86v19.54h14.42c.77,0,1.4.23,1.86.7s.7,1.09.7,1.86v1.63c0,.78-.23,1.4-.7,1.86-.47.46-1.09.7-1.86.7h-14.42v33.85c0,4.11.68,7.33,2.04,9.65,1.36,2.33,3.78,3.49,7.27,3.49h6.28c.77,0,1.4.23,1.86.7.46.47.7,1.09.7,1.86v1.63c0,.78-.23,1.4-.7,1.86-.46.47-1.09.7-1.86.7h-6.87Z" fill="#fdfaf1" stroke-width="0"/>
        <path d="M707.52,162.58c-7.52,0-13.49-2.46-17.91-7.39-4.42-4.92-6.94-11.38-7.56-19.37-.08-1.16-.12-2.71-.12-4.65s.04-3.49.12-4.65c.39-5.27,1.63-9.92,3.72-13.96,2.09-4.03,4.98-7.17,8.67-9.42,3.68-2.25,8.04-3.37,13.09-3.37,5.43,0,10.04,1.2,13.84,3.61,3.8,2.41,6.73,5.86,8.78,10.35,2.05,4.5,3.08,9.85,3.08,16.05v1.74c0,.78-.25,1.4-.76,1.86-.5.47-1.14.7-1.92.7h-41.41v1.16c.15,3.49.97,6.8,2.44,9.95,1.47,3.14,3.57,5.7,6.28,7.68s5.93,2.97,9.66,2.97c3.33,0,6.11-.5,8.32-1.51s3.97-2.11,5.29-3.31,2.17-2.11,2.56-2.73c.7-1.01,1.24-1.61,1.63-1.8s1.01-.29,1.86-.29h1.86c.7,0,1.3.21,1.8.64s.72.99.64,1.69c-.08,1.09-.68,2.42-1.8,4.01-1.12,1.59-2.71,3.16-4.77,4.71-2.06,1.55-4.56,2.83-7.5,3.84-2.95,1.01-6.24,1.51-9.89,1.51v-.02ZM689.14,127.57h36.99v-.47c0-3.88-.74-7.37-2.21-10.47-1.47-3.1-3.61-5.56-6.4-7.39-2.79-1.82-6.13-2.73-10-2.73s-7.19.91-9.95,2.73c-2.75,1.82-4.85,4.29-6.28,7.39-1.44,3.1-2.15,6.59-2.15,10.47v.47h0Z" fill="#fdfaf1" stroke-width="0"/>
        <path d="M762.53,162.58c-3.72,0-7.15-.78-10.29-2.33-3.14-1.55-5.68-3.62-7.62-6.22s-2.91-5.52-2.91-8.78c0-5.27,2.13-9.5,6.4-12.68,4.26-3.18,9.81-5.23,16.63-6.17l18.38-2.56v-4.07c0-4.11-1.26-7.35-3.78-9.71s-6.53-3.55-12.04-3.55c-4.03,0-7.29.8-9.77,2.38-2.48,1.59-4.19,3.66-5.12,6.22-.39,1.16-1.12,1.74-2.21,1.74h-1.86c-.93,0-1.59-.25-1.98-.76-.39-.5-.58-1.11-.58-1.8,0-1.08.41-2.44,1.22-4.07.81-1.63,2.07-3.24,3.78-4.83s3.92-2.93,6.63-4.01,6.01-1.63,9.89-1.63c4.58,0,8.36.62,11.34,1.86,2.98,1.24,5.31,2.85,6.98,4.83s2.85,4.17,3.55,6.57,1.05,4.77,1.05,7.09v38.74c0,.78-.23,1.4-.7,1.86s-1.09.7-1.86.7h-1.98c-.78,0-1.4-.23-1.86-.7s-.7-1.08-.7-1.86v-5.47c-.93,1.4-2.25,2.79-3.95,4.19-1.71,1.4-3.9,2.58-6.57,3.55-2.68.97-6.03,1.45-10.06,1.45v.02ZM763.7,155.84c3.57,0,6.82-.77,9.77-2.33,2.95-1.55,5.29-3.93,7.04-7.15s2.62-7.27,2.62-12.16v-3.96l-15,2.09c-6.36.85-11.17,2.33-14.42,4.42s-4.88,4.73-4.88,7.91c0,2.56.74,4.65,2.21,6.28,1.47,1.63,3.35,2.85,5.64,3.66,2.29.81,4.63,1.22,7.04,1.22l-.02.02Z" fill="#fdfaf1" stroke-width="0"/>
        <path d="M808.83,161.42c-.78,0-1.4-.23-1.86-.7-.47-.46-.7-1.08-.7-1.86v-55.25c0-.77.23-1.41.7-1.92.46-.5,1.08-.76,1.86-.76h1.86c.77,0,1.41.25,1.92.76.5.51.76,1.15.76,1.92v5.35c1.4-2.71,3.41-4.73,6.05-6.05,2.63-1.32,5.89-1.98,9.77-1.98h4.3c.77,0,1.4.23,1.86.7.46.46.7,1.09.7,1.86v1.63c0,.78-.23,1.4-.7,1.86-.46.46-1.09.7-1.86.7h-5c-4.65,0-8.34,1.36-11.05,4.07s-4.07,6.4-4.07,11.05v36.06c0,.78-.25,1.4-.76,1.86-.51.47-1.15.7-1.92.7h-1.86Z" fill="#fdfaf1" stroke-width="0"/>
        <path d="M866.06,162.58c-5.58,0-10.26-1.16-14.02-3.49-3.76-2.33-6.63-5.51-8.61-9.54s-3.04-8.53-3.2-13.49c-.08-1.16-.12-2.79-.12-4.89s.04-3.72.12-4.89c.16-5.04,1.22-9.56,3.2-13.55,1.98-3.99,4.85-7.15,8.61-9.48s8.43-3.49,14.02-3.49,10.25,1.16,14.02,3.49c3.76,2.33,6.63,5.49,8.61,9.48,1.98,4,3.04,8.51,3.2,13.55.08,1.16.12,2.79.12,4.89s-.04,3.72-.12,4.89c-.16,4.96-1.22,9.46-3.2,13.49-1.98,4.03-4.85,7.21-8.61,9.54s-8.43,3.49-14.02,3.49ZM866.06,155.84c5.43,0,9.85-1.75,13.26-5.23,3.41-3.49,5.23-8.53,5.47-15.12.08-1.16.12-2.6.12-4.3s-.04-3.14-.12-4.3c-.23-6.67-2.06-11.73-5.47-15.18s-7.83-5.18-13.26-5.18-9.85,1.73-13.26,5.18c-3.41,3.45-5.23,8.51-5.47,15.18-.08,1.16-.12,2.6-.12,4.3s.04,3.14.12,4.3c.23,6.59,2.05,11.63,5.47,15.12,3.41,3.49,7.83,5.23,13.26,5.23Z" fill="#fdfaf1" stroke-width="0"/>
        <path d="M921.89,162.58c-3.72,0-7.15-.78-10.29-2.33-3.14-1.55-5.68-3.62-7.62-6.22s-2.91-5.52-2.91-8.78c0-5.27,2.13-9.5,6.4-12.68,4.26-3.18,9.81-5.23,16.63-6.17l18.38-2.56v-4.07c0-4.11-1.26-7.35-3.78-9.71s-6.53-3.55-12.04-3.55c-4.03,0-7.29.8-9.77,2.38-2.48,1.59-4.19,3.66-5.12,6.22-.39,1.16-1.12,1.74-2.21,1.74h-1.86c-.93,0-1.59-.25-1.98-.76-.39-.5-.58-1.11-.58-1.8,0-1.08.41-2.44,1.22-4.07.81-1.63,2.07-3.24,3.78-4.83s3.92-2.93,6.63-4.01,6.01-1.63,9.89-1.63c4.58,0,8.36.62,11.34,1.86,2.98,1.24,5.31,2.85,6.98,4.83s2.85,4.17,3.55,6.57,1.05,4.77,1.05,7.09v38.74c0,.78-.23,1.4-.7,1.86s-1.09.7-1.86.7h-1.98c-.78,0-1.4-.23-1.86-.7s-.7-1.08-.7-1.86v-5.47c-.93,1.4-2.25,2.79-3.95,4.19-1.71,1.4-3.9,2.58-6.57,3.55-2.68.97-6.03,1.45-10.06,1.45v.02ZM923.05,155.84c3.57,0,6.82-.77,9.77-2.33,2.95-1.55,5.29-3.93,7.04-7.15s2.62-7.27,2.62-12.16v-3.96l-15,2.09c-6.36.85-11.17,2.33-14.42,4.42s-4.88,4.73-4.88,7.91c0,2.56.74,4.65,2.21,6.28,1.47,1.63,3.35,2.85,5.64,3.66,2.29.81,4.63,1.22,7.04,1.22l-.02.02Z" fill="#fdfaf1" stroke-width="0"/>
      </g>
    </g>
    <path d="M1135.02,77.71c-.21-.31-.56-1.39-.79-2.1-.7-2.16-1.31-4.02-2.99-4.7-.81-.33-1.72-.28-2.5.14-20.46,10.83-27.54,5.25-32.71,1.17-3.84-3.03-3.39-12.4-3.03-19.92.4-8.31.71-14.88-3.84-16.47-2.64-.92-5.58.47-7.2,2.15-3.95,4.1-2.73,11.37-1.83,16.67.14.82.3,1.78.42,2.65-.88-.82-1.97-2.03-3.12-3.64-3.74-5.26-3.96-8.27-4.3-12.83-.15-2.02-.32-4.31-.82-7.1-1.44-8.14-4.75-10.02-8.57-12.2-4.16-2.37-9.87-5.61-17.53-19.92-.79-1.47-2.22-1.8-3.3-1.47-1.5.46-2.33,1.95-2.77,4.99-.31,2.16-.35,4.7-.09,7.13,1.87,17.87,11.06,30.17,19.16,41.02,7.23,9.67,12.93,17.31,11.33,25.99-1.2,6.5-6.04,11.4-10.31,15.72-4.34,4.4-8.44,8.55-6.09,13.22,1.44,2.86,3.62,4,5.93,5.2,2.07,1.08,4.41,2.3,7.07,5.2.92,1,1.9,1.96,2.85,2.88,4.82,4.7,5.94,6.45,4.07,8.97-2.32,3.14-6.37,5.05-8.32,3.94-2.65-1.51-5.98-2.32-8.65-2.98-.98-.24-1.91-.47-2.57-.68-3.84-1.23-6.08,2.53-7.57,5.01-.31.52-.75,1.26-1.15,1.82-.21-1.08-.31-2.73-.38-3.85-.27-4.14-.57-8.84-4.08-10.42-3.2-1.44-7.45.61-12.64,6.09-8.75,9.25-11.54,18.13-14.23,26.71-1.76,5.61-3.42,10.9-6.69,16.14-5.56,8.91-12.04,11.55-19.55,14.61-8.45,3.44-18.03,7.35-28.03,20.6-4.59,6.08-8.46,13.12-10.62,19.32-3.11,8.9-1.6,12.63.2,14.19,1.7,1.47,3.93,1.32,5.55,1.21.5-.03,1.27-.09,1.68-.03-.1.51-.54,1.49-.85,2.17-.43.97-.94,2.09-1.31,3.35-12.22,1.24-30.48.88-33.43-13.91,0-.02-.01-.05-.02-.07,8.61-2.77,13.76-13.97,11.57-17.09-.72-1.02-2.04-.91-7.26-.25l-1.05-9.42c-.12-1.09-1.11-1.88-2.2-1.76l-1.39.16c-1.09.12-1.88,1.11-1.76,2.2l1.06,9.49c-1.12.14-2.35.28-3.69.43-1.09.12-2.1.23-3.05.33l-1.06-9.49c-.12-1.09-1.11-1.88-2.2-1.76l-1.39.16c-1.09.12-1.88,1.11-1.76,2.2l1.05,9.43c-5.26.51-6.56.68-7.03,1.83-1.45,3.54,6.18,13.5,15.3,14.14,0,.15.02.3.05.45,1.39,6.97,6.4,15.73,22.3,17.82,5.33.7,10.81.53,15.49.11.03.26.08.52.13.79,1,4.9,5.32,9.11,10.51,10.22.96.21,1.98.31,3.02.31,1.67,0,3.39-.26,4.91-.77,3.11-1.04,5.15-2.94,5.74-5.35,1.11-4.5-3.16-8.85-6.54-10.5-1.96-.96-4.21-1.36-6.51-1.16-.56.05-1.37.18-2.6.37-.77.12-1.67.26-2.67.41.09-.21.19-.43.29-.64.96-2.13,2.15-4.78.41-7.15-1.63-2.22-4.3-2.04-6.07-1.92-.64.04-1.7.12-2-.03-.3-.38-.89-2.9,1.35-9.16,2.02-5.65,5.59-12.08,9.78-17.65,9.18-12.17,17.71-15.64,25.95-19.01,7.95-3.24,15.47-6.3,21.87-16.57,3.6-5.78,5.44-11.62,7.21-17.28,2.64-8.42,5.14-16.38,13.11-24.8,4.45-4.7,6.73-5.13,7.05-4.99,0,0,.34.23.65,1.51.31,1.31.42,3.05.53,4.73.25,3.89.51,7.91,3.69,8.94,3.5,1.14,5.6-2.37,6.98-4.7.51-.86,1.44-2.41,1.99-2.8.79.24,1.75.48,2.75.72,1.72.42,3.74.91,5.49,1.59-.05.07-.1.14-.15.21-1.81,2.61-3.04,9.11-2.75,12.39.42,4.67-4.59,8.83-9.89,13.23-6.17,5.13-12.55,10.43-12.28,18.03.1,2.72,1.04,4.51,1.74,5.82.71,1.35.77,1.59.56,2.19-.6,1.68-3.13,2.14-7.19,2.74-4.49.67-10.07,1.5-14.58,5.47-4.88,4.3-5.23,9.38-5.59,14.75-.34,4.92-.71,10.5-4.47,17.29-.15.27-.33.61-.54,1.01-2.33,4.42-8.53,16.16-18.63,15.27-2.92-.26-7.81-.69-13.5-8.69-.41-.58-.77-1.08-1.13-1.51-.87-1.05-2.42-1.19-3.47-.33-1.05.87-1.19,2.42-.33,3.47.24.29.55.72.91,1.23,2.28,3.2,7.01,9.85,17.08,10.73.52.05,1.04.07,1.55.07,12.4,0,19.48-13.42,21.87-17.95.19-.36.36-.68.49-.92,4.29-7.75,4.73-14.18,5.08-19.34.35-5.08.57-8.43,3.93-11.39,3.42-3.01,8.01-3.69,12.05-4.3,4.66-.69,9.48-1.41,11.11-5.96.97-2.71-.03-4.62-.84-6.15-.57-1.08-1.11-2.11-1.17-3.7-.19-5.18,5-9.49,10.5-14.06,6.04-5.02,12.3-10.22,11.65-17.45-.23-2.63.95-7.78,1.9-9.16,1.15-1.67,4.01-1.21,6.3-.23,1.15.5,1.58,1.84,2.13,4,.52,2.02,1.17,4.54,3.57,5.45,4.37,1.65,10.97-.85,17.67-6.69,8.01-6.99,15.14-18.23,12.99-27.55-.07-.32-.17-.65-.26-1-.4-1.42-.85-3.03-.19-4.54.42-.95,1.58-1.29,4.13-1.83,2.75-.59,6.18-1.32,8.94-4.23.93-.98,1.83-1.92,2.7-2.83,5.12-5.36,8.82-9.24,11-12.65,1.68-2.64,3.59-6.66.73-10.97ZM963.82,251.42c1-.16,1.86-.3,2.24-.33,0,0,.03,0,.03,0,1.38-.12,2.77.13,3.92.69,2.27,1.1,4.25,3.57,3.92,4.89-.38,1.54-4.41,2.92-7.86,2.18-3.23-.69-6.12-3.44-6.72-6.39-.02-.12-.04-.24-.06-.36,1.78-.24,3.32-.48,4.54-.68ZM1119.73,97.93c-.86.9-1.77,1.85-2.71,2.84-1.72,1.81-3.99,2.29-6.4,2.81-2.87.61-6.13,1.31-7.61,4.67-1.37,3.12-.54,6.08-.04,7.85.08.29.16.56.2.77,1.68,7.3-4.75,16.9-11.43,22.74-5.69,4.97-10.44,6.5-12.55,5.85-.23-.37-.5-1.41-.68-2.12-.55-2.14-1.28-4.97-3.76-6.64,1.23-.95,2.35-2.08,3.26-3.31,2.12-2.87,2.4-5.88.84-8.95-1.19-2.34-3.35-4.44-5.43-6.47-.9-.88-1.83-1.78-2.66-2.69-3.24-3.54-6.23-5.1-8.42-6.24-2.09-1.09-3.12-1.67-3.82-3.06-.76-1.51,2.13-4.44,5.19-7.54,4.53-4.59,10.18-10.3,11.65-18.29,1.99-10.79-4.6-19.61-12.23-29.83-7.72-10.34-16.48-22.06-18.21-38.58-.1-.95-.14-1.86-.14-2.69,6.97,11.33,12.61,14.54,16.5,16.75,3.52,2,5.12,2.91,6.16,8.78.45,2.55.61,4.61.76,6.61.36,4.79.67,8.93,5.2,15.31,1.92,2.71,6.8,8.77,10.46,6.47,2.4-1.5,1.85-4.71,1.11-9.15-.72-4.27-1.71-10.12.52-12.43.6-.63,1.59-1.03,1.99-.93.1.12.57.78.73,3.37.14,2.26,0,5.16-.15,8.23-.44,9.11-.93,19.43,4.9,24.03,4.01,3.16,8.73,6.15,15.9,6.14,5.26,0,11.83-1.6,20.4-5.91.1.29.2.59.27.82.41,1.25.79,2.43,1.37,3.3,2.18,3.29-1.62,7.48-11.19,17.5Z" fill="#fdfaf1" stroke-width="0"/>
  </g>
</svg>
